<?xml version="1.0" encoding="utf-8"?>
<!-- Generator: Adobe Illustrator 20.1.0, SVG Export Plug-In . SVG Version: 6.00 Build 0)  -->
<svg version="1.1" id="Layer_1" xmlns="http://www.w3.org/2000/svg" xmlns:xlink="http://www.w3.org/1999/xlink" x="0px" y="0px"
	 viewBox="0 0 402.2 540" style="enable-background:new 0 0 402.2 540;" xml:space="preserve">
<style type="text/css">
	.st0{fill:#FFFFFF;}
	.st1{fill:#74CEDD;}
	.st2{fill:#F7D3A2;}
</style>
<g>
	<path class="st0" d="M360.8,297c2.6,1.4,4.5,2.4,6.5,3.4c10.8,5.2,14.4,4,19.8-6.6c0.1-0.3,0.4-0.5,0.6-0.8
		c3.7-5.7,3.6-8.6-0.5-13.9c-6.1-7.7-14.5-11-23.9-12c-4.4-0.5-5.5-2.2-5.5-6.3c0.1-16-0.1-32-0.3-48c-0.4-33.5-1.2-66.9-9-99.7
		c-0.9-3.7-0.2-5.4,3.4-7.2c12-5.8,19.4-15.2,19.6-28.9c0.4-25.6-27-49.4-56.2-33.5c-3.3,1.8-5.3,1.7-8.2-0.6
		c-12.4-9.7-26.5-16-41.7-19.8c-37.8-9.4-75.8-9.3-113.9-1.5c-22.9,4.7-44.7,12-63.4,26.6c-2.9,2.3-4.8,2.7-8.2,1
		c-21.6-10.7-46.1-0.8-54.5,21.6c-6.2,16.5,0.2,32.4,16.7,40.4c4.5,2.1,5.5,4.3,4.4,9c-5.3,23.5-5.1,47.3-3.8,71.1
		c1.3,24.1,3.4,48.2,5.1,72.2c0.1,1.4,0,2.9,0,4.4c-3.4,0.4-6.4,0.6-9.4,1.1c-8.7,1.5-16.7,4.6-22.5,11.7
		c-4.8,5.9-1.4,20.4,5.6,23.4c2,0.9,4.7,1.2,6.8,0.6c4.2-1.3,8.3-3.4,12.3-5.2c2-0.9,4-2,7-3.5c-1,13.3-1.9,25.4-2.8,37.5
		c-2.1,27.9-3.9,55.8,0.5,83.7c3.9,24.7,12.6,47.2,31.1,65c0.6,0.5,1,1.3,1.7,2.2c-2.8,2.1-5.4,3.8-7.7,5.9
		c-4.1,3.6-8.4,7.1-11.8,11.4c-4.5,5.6-5.3,12.3-1.3,18.6c1.7,2.7,4.8,4.4,7.2,6.7c3.3,3.1,7.3,4.6,11.4,2.5
		c4.8-2.5,9.4-5.6,13.9-8.7c5.5-3.7,10.6-8,16.2-11.5c4.1-2.6,8.7-2.7,13.4-0.6c4.4,1.9,9,3.4,13.7,4.7c26.5,7.6,53.5,9.9,81,8.2
		c25.5-1.6,50.1-6.1,73.5-16.6c9.7-4.3,9.7-4.4,17.1,3.5c2.6,2.8,5,5.8,7.6,8.6c2.1,2.2,4.2,4.3,6.6,6.1c5.5,4.1,10.2,4.2,15.7,0.6
		c8.1-5.2,11.4-10.3,9.2-16.9c-1.8-5.4-4.9-10.5-8.2-15.1c-3.1-4.4-7.3-8-11.1-12c1.6-1.8,3.4-3.8,5.1-5.8c1.7-2.1,3.4-4.1,4.9-6.3
		c16.5-23.9,23.1-51,26.1-79.3c2.6-24.9,1.8-49.9,0.3-74.8C360.6,308.2,360.8,302.9,360.8,297z"/>
	<path d="M360.8,297c0,5.9-0.3,11.2,0,16.4c1.5,25,2.3,49.9-0.3,74.8c-3,28.3-9.6,55.4-26.1,79.3c-1.5,2.2-3.2,4.3-4.9,6.3
		c-1.7,2-3.5,4-5.1,5.8c3.8,4,8,7.6,11.1,12c3.3,4.7,6.4,9.8,8.2,15.1c2.2,6.6-1.2,11.8-9.2,16.9c-5.5,3.5-10.3,3.4-15.7-0.6
		c-2.4-1.8-4.5-3.9-6.6-6.1c-2.6-2.8-5-5.8-7.6-8.6c-7.4-7.9-7.4-7.8-17.1-3.5c-23.4,10.4-48.1,15-73.5,16.6
		c-27.5,1.7-54.5-0.7-81-8.2c-4.6-1.3-9.2-2.8-13.7-4.7c-4.7-2-9.3-2-13.4,0.6c-5.6,3.5-10.8,7.8-16.2,11.5c-4.5,3.1-9,6.2-13.9,8.7
		c-4.1,2.1-8.1,0.7-11.4-2.5c-2.4-2.2-5.5-4-7.2-6.7c-4-6.3-3.2-13,1.3-18.6c3.4-4.2,7.7-7.7,11.8-11.4c2.3-2.1,5-3.8,7.7-5.9
		c-0.7-0.9-1.1-1.7-1.7-2.2c-18.5-17.8-27.2-40.3-31.1-65c-4.4-27.9-2.6-55.8-0.5-83.7c0.9-12.1,1.8-24.2,2.8-37.5
		c-3,1.5-5,2.6-7,3.5c-4.1,1.8-8.1,3.9-12.3,5.2c-2,0.6-4.8,0.3-6.8-0.6c-7-3-10.3-17.5-5.6-23.4c5.8-7.1,13.8-10.2,22.5-11.7
		c2.9-0.5,5.9-0.7,9.4-1.1c0-1.6,0.1-3,0-4.4c-1.7-24.1-3.8-48.1-5.1-72.2c-1.3-23.8-1.5-47.6,3.8-71.1c1.1-4.7,0-6.9-4.4-9
		c-16.5-8-22.9-23.8-16.7-40.4c8.4-22.5,32.9-32.3,54.5-21.6c3.4,1.7,5.3,1.3,8.2-1c18.7-14.6,40.5-21.9,63.4-26.6
		c38.1-7.8,76-8,113.9,1.5c15.2,3.8,29.3,10.1,41.7,19.8c2.9,2.3,4.9,2.4,8.2,0.6c29.2-15.9,56.7,8,56.2,33.5
		c-0.2,13.7-7.7,23.1-19.6,28.9c-3.6,1.7-4.3,3.5-3.4,7.2c7.8,32.8,8.6,66.3,9,99.7c0.2,16,0.4,32,0.3,48c0,4.1,1.2,5.8,5.5,6.3
		c9.3,1,17.8,4.3,23.9,12c4.2,5.3,4.2,8.2,0.5,13.9c-0.2,0.3-0.4,0.5-0.6,0.8c-5.4,10.6-9.1,11.8-19.8,6.6
		C365.4,299.4,363.5,298.3,360.8,297z M353.7,242.3c0-17.1,0.1-31.4,0-45.8c-0.2-24.3-1.1-48.7-6.5-72.5
		c-3.4-15.2-7.3-30.7-13.9-44.6C320,52,296.9,35.2,267.7,27.1c-41.2-11.3-82.6-10.3-124-0.5c-21,5-40.6,12.9-57.3,27
		c-22.7,19.3-32.9,45-37.9,73.4c-5.2,29.8-3.5,59.8-0.5,89.6c4.1,39.9,3.9,79.7,0.1,119.7c-2.5,26.2-3.5,52.5,0.4,78.8
		c3.4,22.8,10.9,43.9,27.1,61.1c13.8,14.6,30.8,24.3,49.7,30.7c40.4,13.7,81.7,14.3,123.2,6.4c20.8-4,40.3-11.4,57.9-23.4
		c25.9-17.7,38.7-43.6,45.8-73.1c6.7-27.8,7.1-56.1,6-84.4C357,301.4,355.1,270.5,353.7,242.3z M346.4,103.7
		c12-3.4,20.3-13.3,21.6-25.5c1.3-12-7-26.4-18.9-32.8c-11.2-6-25.6-4.8-34.7,2.9c3.3,3.7,6.5,7.5,10,10.9c0.9,0.9,2.9,1.2,4.3,1.1
		c5.3-0.5,9.6,0.9,12.3,5.6c2.7,4.7,3.1,9.3-0.6,13.9c-0.8,1-1.2,3-0.8,4.3C341.7,90.6,344.1,97,346.4,103.7z M66.1,70.3
		c5-5.7,9.7-11.2,14.8-16.9c-12.3-6.7-24.5-7.8-36.6-0.4c-11.9,7.3-18.6,18-17.6,32.4c0.7,11.2,10.7,21.9,22,24.1
		c1.8-5.4,3.6-10.9,5.4-16.3c-9.9-7.4-11.7-11.7-7.8-18.9C49.9,67.5,55,66.4,66.1,70.3z M106.7,503.6c-7.3-4.9-15.3-10.3-23.3-15.5
		c-0.9-0.6-2.9-1-3.5-0.5c-6.6,5.5-13.5,10.8-19.2,17.1c-4.2,4.6-3.1,10.1,0.8,14.7c2.6-4.2,5.1-8.4,7.8-12.5
		c0.4-0.6,1.6-0.7,2.4-1.1c0.1,0.9,0.7,1.9,0.4,2.6c-1.4,2.6-3.1,5.1-4.6,7.7c-1.5,2.6-3.3,5.2-0.5,8.1c2.7,2.8,6,3.2,9.1,1.4
		c4.4-2.6,8.6-5.7,12.7-8.7C94.8,512.4,100.9,507.9,106.7,503.6z M321.3,483c-7.2,5.3-14.3,10.5-21.1,15.5
		c5.7,6.2,11.3,12.5,17.3,18.5c2.2,2.2,5,4.2,7.8,5c2.2,0.6,5.1-0.6,7.3-1.8c0.6-0.3,0.1-3.6-0.6-5.3c-1.2-2.9-3-5.5-4.3-8.4
		c-0.4-0.8-0.2-2-0.3-3c1,0.3,2.3,0.3,2.9,1c1.2,1.3,2.2,2.9,3,4.5c1.3,2.6,2.3,5.2,3.5,8.1c4.6-4.7,5.3-8.6,2.4-14.5
		C335.1,494.4,328.7,488.2,321.3,483z M48.6,272.5c-11.4-2.3-25.9,3.3-30.8,11.6c-1.1,1.8-0.8,4.5-1.1,6.8c1.9-0.4,3.7-1,5.6-1.3
		c0.8-0.2,1.7,0,2.6,0c-0.2,0.9,0,2.1-0.6,2.6c-1.4,1.3-3.1,2.3-4.7,3.3c1.9,5.5,4.4,7.2,9.9,5.1c5.7-2.1,11.1-5.2,16.5-8.1
		c0.8-0.4,1.3-1.9,1.4-3C47.9,284,48.2,278.4,48.6,272.5z M358.2,269.8c0.5,7.2,0.8,13.7,1.3,20.1c0.1,0.8,0.6,2,1.3,2.4
		c4.7,2.4,9.3,5.1,14.3,6.8c4.9,1.6,7-0.4,7.9-5.8c-0.5-0.3-1.2-0.6-1.6-1c-1.2-1.3-2.4-2.8-3.5-4.1c1.6,0.4,3.3,0.8,4.9,1
		c1,0.2,2.4,0.6,3.1,0.1c0.7-0.6,1.3-2.1,1-3c-0.6-1.9-1.4-3.8-2.6-5.3C377.8,273,368.9,270.5,358.2,269.8z"/>
	<path class="st1" d="M353.7,242.3c1.5,28.2,3.4,59.1,4.6,90c1.2,28.3,0.7,56.6-6,84.4c-7.1,29.5-19.9,55.4-45.8,73.1
		c-17.6,12.1-37.1,19.5-57.9,23.4c-41.6,7.9-82.8,7.3-123.2-6.4c-18.9-6.4-35.9-16-49.7-30.7C59.6,459.1,52,438,48.6,415.1
		c-3.9-26.2-2.8-52.5-0.4-78.8c3.8-39.9,4-79.7-0.1-119.7c-3.1-29.8-4.8-59.8,0.5-89.6c5-28.4,15.2-54.1,37.9-73.4
		c16.7-14.1,36.3-22,57.3-27c41.4-9.8,82.8-10.8,124,0.5c29.2,8,52.3,24.9,65.5,52.3c6.7,13.9,10.5,29.4,13.9,44.6
		c5.4,23.8,6.3,48.2,6.5,72.5C353.8,210.9,353.7,225.2,353.7,242.3z M198.1,193c0.4,0.9,0.6,1.9,1.2,2.5c3.9,4.2,8.2,6.2,14.2,3.7
		c5.8-2.5,7.2-6.8,7-12.4c-0.2-4.8,0-9.5,0-14.5c0.8,0,1.8,0,2.7,0c7.6,0.2,12.7-2.7,15.7-9.1c2.5-5.5,1.3-11.5-4.1-16.7
		c-3.3-3.2-7.4-5.5-11.1-8.4c-1.3-1-2.9-2.5-3-3.9c-0.8-6-4.3-9.6-9.5-11.8c-6.6-2.6-13.3-2.7-20-0.7c-6.8,2-11.7,5.9-13.8,13.1
		c-0.4,1.2-1.9,2.4-3.2,3c-8.3,3.6-13.2,10-13.3,18.9c-0.1,8.1,4.2,13.8,11.5,15.3c1.5,7.3,2,14.2,4.3,20.4c3.2,8.5,10.7,9.8,17.6,4
		C195.3,195.4,196.2,194.6,198.1,193z M253.2,135.8c6.5-1.3,13.1-2.1,19.4-4.1c18.7-6,30.3-20.6,31.6-38.9
		c1.3-18.7-8.8-37.2-24.8-45c-21.7-10.6-51.2-3.7-65.8,15.6c-7.8,10.3-11.3,22-8.6,34.8C209.9,121.1,228.5,135,253.2,135.8z
		 M183.8,93.7c-0.1-22.6-13-38.9-35-44.2c-10.5-2.5-20.9-1.8-31,1.5C80.5,63.1,77,102.9,95.4,124c12.9,14.9,29.9,18.3,48.6,15
		C168.1,134.7,183.9,116.6,183.8,93.7z"/>
	<path class="st1" d="M346.4,103.7c-2.4-6.7-4.7-13.1-6.7-19.6c-0.4-1.2,0-3.2,0.8-4.3c3.6-4.6,3.3-9.2,0.6-13.9
		c-2.7-4.8-7-6.2-12.3-5.6c-1.4,0.1-3.4-0.2-4.3-1.1c-3.5-3.5-6.7-7.3-10-10.9c9.1-7.7,23.5-8.8,34.7-2.9
		c11.9,6.4,20.2,20.8,18.9,32.8C366.7,90.4,358.4,100.3,346.4,103.7z"/>
	<path class="st1" d="M66.1,70.3c-11.1-3.8-16.2-2.8-19.8,4c-3.8,7.1-2.1,11.5,7.8,18.9c-1.8,5.4-3.6,10.9-5.4,16.3
		c-11.3-2.2-21.3-12.8-22-24.1C25.8,71,32.5,60.3,44.3,53c12-7.4,24.2-6.3,36.6,0.4C75.9,59.1,71.1,64.6,66.1,70.3z"/>
	<path class="st2" d="M106.7,503.6c-5.8,4.3-11.9,8.8-18,13.3c-4.2,3-8.3,6.1-12.7,8.7c-3.1,1.8-6.4,1.4-9.1-1.4
		c-2.8-2.9-1-5.5,0.5-8.1c1.5-2.6,3.2-5.1,4.6-7.7c0.3-0.6-0.2-1.7-0.4-2.6c-0.8,0.3-2,0.5-2.4,1.1c-2.7,4.1-5.2,8.4-7.8,12.5
		c-4-4.6-5-10.1-0.8-14.7c5.7-6.3,12.7-11.6,19.2-17.1c0.6-0.5,2.5-0.1,3.5,0.5C91.4,493.3,99.4,498.7,106.7,503.6z"/>
	<path class="st2" d="M321.3,483c7.4,5.2,13.8,11.4,17.9,19.6c2.9,5.9,2.2,9.8-2.4,14.5c-1.2-2.8-2.3-5.5-3.5-8.1
		c-0.8-1.6-1.8-3.2-3-4.5c-0.6-0.7-1.9-0.7-2.9-1c0.1,1-0.1,2.1,0.3,3c1.4,2.8,3.1,5.5,4.3,8.4c0.7,1.7,1.2,4.9,0.6,5.3
		c-2.2,1.2-5.1,2.4-7.3,1.8c-2.9-0.8-5.7-2.8-7.8-5c-6-6-11.6-12.4-17.3-18.5C307,493.5,314,488.3,321.3,483z"/>
	<path class="st2" d="M48.6,272.5c-0.4,5.9-0.7,11.5-1.2,17.1c-0.1,1-0.6,2.6-1.4,3c-5.4,2.9-10.8,6-16.5,8.1
		c-5.5,2.1-8,0.4-9.9-5.1c1.5-1.1,3.3-2,4.7-3.3c0.5-0.5,0.4-1.7,0.6-2.6c-0.9,0-1.8-0.2-2.6,0c-1.9,0.4-3.7,0.9-5.6,1.3
		c0.3-2.3,0-5,1.1-6.8C22.7,275.8,37.2,270.3,48.6,272.5z"/>
	<path class="st2" d="M358.2,269.8c10.7,0.7,19.6,3.2,26.1,11c1.2,1.5,2.1,3.4,2.6,5.3c0.3,0.9-0.3,2.5-1,3
		c-0.6,0.5-2.1,0.1-3.1-0.1c-1.7-0.3-3.3-0.7-4.9-1c1.2,1.4,2.3,2.8,3.5,4.1c0.4,0.5,1.1,0.7,1.6,1c-0.8,5.4-3,7.4-7.9,5.8
		c-5-1.6-9.6-4.4-14.3-6.8c-0.7-0.3-1.3-1.5-1.3-2.4C359,283.5,358.7,277,358.2,269.8z"/>
	<path d="M198.1,193c-1.9,1.6-2.9,2.4-3.9,3.3c-7,5.8-14.5,4.4-17.6-4c-2.3-6.2-2.9-13.1-4.3-20.4c-7.3-1.5-11.7-7.1-11.5-15.3
		c0.1-8.9,5-15.3,13.3-18.9c1.3-0.6,2.8-1.8,3.2-3c2.1-7.1,7-11,13.8-13.1c6.8-2,13.5-1.9,20,0.7c5.3,2.1,8.8,5.8,9.5,11.8
		c0.2,1.4,1.8,2.9,3,3.9c3.6,2.9,7.7,5.2,11.1,8.4c5.5,5.3,6.7,11.2,4.1,16.7c-3,6.4-8,9.4-15.7,9.1c-1,0-1.9,0-2.7,0
		c0,5-0.1,9.7,0,14.5c0.2,5.6-1.2,9.9-7,12.4c-6,2.5-10.3,0.5-14.2-3.7C198.8,194.8,198.6,193.9,198.1,193z M219.7,138.8
		c-1.3,1.1-1.8,1.5-2.4,1.9c-10.7,8.4-27.9,8.6-38.5,0.5c-0.7-0.5-1.8-0.9-2.6-0.8c-7.2,1.1-13.7,11.4-12.1,18.8
		c1.8,8.1,7.4,11.5,16.5,7.9c13.5-5.4,26.4-5.9,39.3,1.1c0.7,0.4,1.6,0.6,2.4,0.7c5.5,1,10.2-1.3,13-6.2c2.7-4.8,1.6-9.3-2-12.8
		C229.1,145.8,224.2,142.4,219.7,138.8z M201.5,164.9c-0.7,0.3-1.3,0.7-2,1c0,7.4-0.2,14.8,0.1,22.2c0.1,4.5,5.1,9.1,9.1,9
		c5.1-0.2,8.6-3.6,8.6-8.9c0-5.3-0.4-10.6-0.8-15.9c-0.1-1-1-2.5-2-2.9C210.2,167.7,205.8,166.4,201.5,164.9z M195.7,165.7
		c-3,1-6.2,2-9.3,3.1c-10.5,3.6-11.2,4.7-8.9,15.8c0.5,2.6,1.5,5.1,2.6,7.5c1.5,3,4.1,5.8,7.5,4.1c3.1-1.6,7.3-4.5,7.7-7.3
		C196.4,181.5,195.7,173.9,195.7,165.7z"/>
	<path d="M253.2,135.8c-24.7-0.8-43.3-14.8-48.2-37.6c-2.7-12.7,0.9-24.5,8.6-34.8c14.5-19.3,44.1-26.2,65.8-15.6
		c16,7.8,26.1,26.2,24.8,45c-1.3,18.3-12.9,32.9-31.6,38.9C266.4,133.8,259.7,134.5,253.2,135.8z M253.2,132.6
		c5.2-0.9,10.6-1.3,15.6-2.7c18.6-5.1,30.7-18.8,32.4-36.3c1.7-17.8-8.1-35.8-23.7-43.3c-22.1-10.6-51.9-1.7-64.4,19.4
		c-5.2,8.9-7.5,18.6-5.1,28.8C213.1,119.4,230.3,132,253.2,132.6z"/>
	<path d="M183.8,93.7c0.1,22.9-15.7,41-39.8,45.3c-18.7,3.3-35.7-0.1-48.6-15C77,102.9,80.5,63.1,117.8,51c10.1-3.3,20.5-4,31-1.5
		C170.8,54.8,183.8,71.1,183.8,93.7z M133.9,137.2c11.6-0.3,23.3-3.9,33.2-12.4c22.7-19.7,17.1-57.3-10.3-69.5
		c-22.8-10.2-52.4-1.6-63.8,18.6C78.7,99.3,93.4,136.9,133.9,137.2z"/>
	<path class="st2" d="M219.7,138.8c4.5,3.6,9.4,7,13.7,11.1c3.6,3.5,4.7,8,2,12.8c-2.8,5-7.4,7.2-13,6.2c-0.8-0.1-1.7-0.3-2.4-0.7
		c-12.9-7-25.8-6.5-39.3-1.1c-9.1,3.6-14.7,0.2-16.5-7.9c-1.7-7.5,4.9-17.8,12.1-18.8c0.8-0.1,1.9,0.3,2.6,0.8
		c10.6,8.1,27.7,7.9,38.5-0.5C217.9,140.3,218.4,139.9,219.7,138.8z"/>
	<path class="st0" d="M201.5,164.9c4.3,1.5,8.7,2.8,13,4.5c0.9,0.4,1.9,1.8,2,2.9c0.5,5.3,0.8,10.6,0.8,15.9c0,5.4-3.5,8.7-8.6,8.9
		c-4,0.1-9-4.5-9.1-9c-0.2-7.4-0.1-14.8-0.1-22.2C200.2,165.6,200.8,165.2,201.5,164.9z"/>
	<path class="st0" d="M195.7,165.7c0,8.2,0.7,15.8-0.4,23.1c-0.4,2.8-4.6,5.7-7.7,7.3c-3.3,1.7-6-1.1-7.5-4.1
		c-1.2-2.3-2.1-4.9-2.6-7.5c-2.2-11.1-1.6-12.2,8.9-15.8C189.5,167.7,192.6,166.7,195.7,165.7z"/>
	<path class="st0" d="M253.2,132.6c-22.9-0.6-40-13.2-45.1-34.1c-2.4-10.2-0.2-19.9,5.1-28.8c12.5-21.1,42.3-30,64.4-19.4
		c15.6,7.5,25.4,25.5,23.7,43.3c-1.7,17.5-13.8,31.2-32.4,36.3C263.7,131.2,258.4,131.7,253.2,132.6z M244.5,92.8
		c0.1-8.7-6-15.7-13.9-15.8c-7.9-0.1-14.2,6.7-14.3,15.4c-0.1,8.8,5.9,15.6,13.9,15.7C238.2,108.2,244.4,101.6,244.5,92.8z"/>
	<path class="st0" d="M133.9,137.2C93.4,136.9,78.7,99.3,93,73.9c11.4-20.3,41-28.8,63.8-18.6c27.4,12.2,33,49.9,10.3,69.5
		C157.2,133.3,145.5,136.9,133.9,137.2z M110.8,81c-8.1,0-14.3,6.7-14.3,15.4c0,9,6.3,15.7,14.6,15.6c7.9-0.1,14.3-7.2,14.2-15.7
		C125.2,87.7,118.8,81,110.8,81z"/>
	<path d="M244.5,92.8c-0.1,8.8-6.3,15.4-14.2,15.3c-8-0.1-13.9-6.9-13.9-15.7c0.1-8.7,6.4-15.5,14.3-15.4
		C238.4,77.1,244.5,84,244.5,92.8z M241.8,96.1c-2.3-1.8-3.7-2.9-5.1-4c-1.1,1.4-2.9,2.8-3,4.3c-0.1,1.1,2,3.5,3,3.4
		C238.1,99.7,239.5,97.9,241.8,96.1z"/>
	<path d="M110.8,81c8,0,14.4,6.7,14.5,15.3c0.1,8.5-6.2,15.5-14.2,15.7c-8.3,0.1-14.6-6.6-14.6-15.6C96.5,87.7,102.7,81,110.8,81z
		 M118.2,95.5c-0.6,0-1.3,0-1.9,0c-0.8,1.6-2.5,3.2-2.3,4.6c0.2,1.4,2.3,2.6,3.6,3.8c1-1.3,2.8-2.6,2.9-3.9
		C120.5,98.6,119,97,118.2,95.5z"/>
	<path class="st0" d="M241.8,96.1c-2.3,1.8-3.6,3.6-5.1,3.7c-1,0.1-3.1-2.3-3-3.4c0.1-1.5,1.9-2.9,3-4.3
		C238.1,93.2,239.5,94.3,241.8,96.1z"/>
	<path class="st0" d="M118.2,95.5c0.8,1.5,2.3,3.1,2.2,4.6c-0.1,1.3-1.8,2.6-2.9,3.9c-1.3-1.3-3.3-2.4-3.6-3.8
		c-0.2-1.4,1.5-3.1,2.3-4.6C116.9,95.5,117.6,95.5,118.2,95.5z"/>
</g>
</svg>
