<?xml version="1.0" encoding="utf-8"?>
<!-- Generator: Adobe Illustrator 20.1.0, SVG Export Plug-In . SVG Version: 6.00 Build 0)  -->
<svg version="1.1" id="Layer_1" xmlns="http://www.w3.org/2000/svg" xmlns:xlink="http://www.w3.org/1999/xlink" x="0px" y="0px"
	 viewBox="0 0 168 192.5" style="enable-background:new 0 0 168 192.5;" xml:space="preserve">
<style type="text/css">
	.st0{fill:#FFFFFF;}
	.st1{fill:#4A4A4A;}
</style>
<g>
	<path class="st0" d="M4,84.3c0,8.8,0.1,17.7,0,26.5c-0.1,5.7,2.2,10,7.1,12.8c22.1,12.7,44.2,25.4,66.3,38.1
		c4.7,2.7,9.5,2.7,14.3,0c22.1-12.7,44.2-25.3,66.3-38c4.7-2.7,7.1-6.8,7.1-12.3c0-18,0-36,0-54c0-5.5-2.4-9.6-7.1-12.3
		C135.9,32.4,114,19.8,92.1,7.2C87,4.2,82,4.2,76.9,7.1C55.1,19.7,33.4,32.2,11.5,44.7C6.4,47.6,3.9,51.9,4,57.8
		C4.1,66.6,4,75.4,4,84.3 M4.3,131.5c-1.9,9.4,1.5,15.9,10.5,20.8c20.2,10.9,40,22.6,59.8,34.3c7,4.2,13,4,20-0.1
		c20-11.9,40.4-23.3,60.6-34.9c9.1-5.2,11.2-9.8,9.2-20.6c-2,1.5-3.9,3.1-6,4.3c-22,12.7-44.1,25.4-66.2,38.1
		c-5.3,3-10.3,2.9-15.5-0.1c-14.7-8.5-29.4-16.9-44.1-25.4C23.1,142.5,13.8,137,4.3,131.5"/>
	<path d="M4,84.3c0-8.8,0.1-17.7,0-26.5c-0.1-5.9,2.5-10.1,7.6-13.1c21.8-12.5,43.6-25,65.4-37.6c5.1-2.9,10-2.9,15.1,0
		C114,19.8,135.9,32.4,157.9,45c4.7,2.7,7.1,6.8,7.1,12.3c0,18,0,36,0,54c0,5.5-2.4,9.6-7.1,12.3c-22.1,12.7-44.2,25.3-66.3,38
		c-4.8,2.7-9.6,2.7-14.3,0c-22.1-12.6-44.2-25.4-66.3-38.1c-4.9-2.8-7.2-7.1-7.1-12.8C4.1,101.9,4,93.1,4,84.3 M104.8,41.8
		c1.4-1.9,3.2-3.4,2.9-4.3c-0.4-1.3-2.2-2.2-3.4-3.3c-1,1.2-2.6,2.3-2.7,3.5C101.6,38.7,103.3,39.9,104.8,41.8 M109,60.8
		c-1.8-1.5-2.9-3.2-4-3.2c-1.1,0-2.3,1.6-3.5,2.5c1,1.2,1.9,3.1,3.1,3.5C105.5,63.9,107,62.1,109,60.8 M68.6,60.3
		c-1.9-1.3-3.3-2.9-4.4-2.7c-1.2,0.2-2.1,1.9-3.2,3c1.2,1.1,2.3,2.8,3.6,3C65.6,63.8,66.9,61.8,68.6,60.3 M88.8,141.1
		c-1.9-1.4-3.2-3-4.4-2.9c-1.2,0.1-2.2,1.9-3.3,2.9c1.2,1.1,2.2,2.8,3.6,3.1C85.7,144.5,87,142.6,88.8,141.1 M84.5,113.9
		c-1.4,1.9-3.1,3.1-3,4.2c0.1,1.1,1.8,2.2,2.8,3.3c1.2-1.1,2.9-2.1,3.2-3.4C87.8,117.1,85.9,115.8,84.5,113.9 M88.9,95.5
		c-1.8-1.5-3.1-3.4-4.1-3.2c-1.3,0.2-2.4,2-3.6,3.1c1.1,1,2.1,2.8,3.2,2.9C85.6,98.4,86.9,96.8,88.9,95.5 M48.5,95.3
		c-1.9-1.5-3.3-3.3-4.1-3c-1.3,0.3-2.3,2.1-3.4,3.2c1.1,1,2.1,2.7,3.3,2.8C45.4,98.4,46.6,96.7,48.5,95.3 M68.7,37.7
		c-1.8-1.6-3.1-3.5-4-3.3c-1.3,0.2-2.4,1.9-3.6,3c1,1.1,2,2.8,3.2,3C65.4,40.6,66.7,39,68.7,37.7 M24,65c1.5-2.1,3.1-3.3,3-4.5
		c-0.1-1.2-1.9-2.2-2.9-3.3c-1.1,1.1-2.8,2.1-3,3.3C21,61.6,22.6,62.9,24,65 M149.3,61.2c-1.7-1.8-2.7-3.6-3.8-3.7
		c-1.1-0.1-3.2,1.5-3.3,2.5c-0.1,1.1,1.3,3.1,2.4,3.4C145.6,63.8,147.1,62.3,149.3,61.2 M109.2,129.7c-2.1-1.4-3.5-2.9-4.6-2.7
		c-1.2,0.2-2.1,1.9-3.2,3c1.1,1,2.2,2.7,3.3,2.8C105.9,132.8,107.1,131.2,109.2,129.7 M68.7,129.6c-2-1.4-3.2-2.9-4.4-2.8
		c-1.2,0.1-2.2,1.8-3.3,2.8c1.2,1.1,2.2,2.8,3.5,3.1C65.5,132.9,66.8,131.1,68.7,129.6 M28.4,83.9c-2-1.5-3.2-3.2-4.2-3.1
		c-1.1,0.1-3,1.8-3,2.8c0,1.1,1.6,2.9,2.8,3.1C25,86.9,26.3,85.3,28.4,83.9 M64.5,88.1c1.3-2.1,2.9-3.4,2.8-4.5
		c-0.2-1.1-2.1-2.9-3.1-2.8c-1.1,0.1-2.8,1.9-2.9,3.1C61.3,85,63,86.2,64.5,88.1 M104.9,88c1.3-2,3.1-3.5,2.8-4.3
		c-0.4-1.3-2.2-2.1-3.5-3.1c-0.9,1.1-2.6,2.3-2.6,3.4C101.7,85.1,103.4,86.2,104.9,88 M149.4,83.6c-2-1.4-3.4-3-4.4-2.8
		c-1.1,0.2-2.9,2-2.8,3c0,1.1,1.9,2.8,3,2.9C146.2,86.8,147.4,85.1,149.4,83.6 M84.3,53.3c1.6-1.9,3.3-3.1,3.3-4.2
		c0-1.1-1.8-3-2.9-3c-1.1,0-3,1.6-3.2,2.7C81.3,49.9,82.9,51.3,84.3,53.3 M68.8,106.7c-2.2-1.4-3.5-2.9-4.6-2.7
		c-1.2,0.2-2.1,1.9-3.1,3c1.1,1,2.2,2.7,3.3,2.8C65.6,109.9,66.8,108.2,68.8,106.7 M104.7,102.4c-1.5,1.9-3.3,3.2-3.1,4.1
		c0.3,1.3,2.1,2.3,3.2,3.4c1-1.1,2.7-2.1,2.8-3.3C107.8,105.5,106.2,104.3,104.7,102.4 M124.7,122.8c1.5-2,3.1-3.3,3.1-4.4
		c-0.1-1.2-1.9-2.2-2.9-3.3c-1.1,1.1-2.8,2-3,3.2C121.8,119.5,123.4,120.8,124.7,122.8 M129.3,95.2c-2.1-1.4-3.4-3-4.5-2.9
		c-1.1,0.1-2.1,1.9-3.1,3c1.1,1,2,2.7,3.2,2.8C126,98.2,127.3,96.6,129.3,95.2 M80,72.2c2.1,1.4,3.4,3,4.5,2.9
		c1.2-0.1,2.2-1.9,3.2-2.9c-1.1-1.1-2.1-2.8-3.3-2.9C83.4,69.1,82.1,70.7,80,72.2 M24.3,102.5c-1.6,2-3.3,3.1-3.2,4.2
		c0,1.1,1.6,3,2.6,3.1c1.1,0.1,2.9-1.5,3.1-2.6C27.1,106,25.6,104.7,24.3,102.5 M145.3,102.5c-1.6,2-3.3,3.1-3.2,4.2
		c0,1.1,1.6,3,2.7,3.1c1,0.1,2.9-1.5,3.1-2.7C148.1,106.1,146.6,104.7,145.3,102.5 M48.5,118.6c-1.9-1.5-3.2-3.2-4.2-3.1
		c-1.2,0.1-3,1.8-3.1,2.9c-0.1,1.1,1.7,2.9,2.9,3.1C45.2,121.6,46.5,120,48.5,118.6 M43.8,44.6c-1.3,2.1-2.8,3.5-2.6,4.6
		c0.2,1.1,2.1,2.8,3.1,2.7c1.1-0.1,2.7-1.9,2.7-3.1C47.1,47.7,45.4,46.5,43.8,44.6 M129.3,48.9c-2.1-1.4-3.4-3-4.5-2.8
		c-1.1,0.1-2.1,1.9-3.1,2.9c1.1,1,2.1,2.7,3.2,2.8C126,51.9,127.2,50.4,129.3,48.9 M129.3,72.2c-2.1-1.5-3.3-3.1-4.4-3
		c-1.1,0.1-2.2,1.8-3.2,2.8c1,1.1,2,2.8,3.1,3C125.9,75.1,127.2,73.6,129.3,72.2 M44.3,76.5c1.3-2.1,2.9-3.4,2.7-4.5
		c-0.2-1.1-2-2.8-3-2.8c-1.1,0.1-2.8,1.9-2.8,3C41.1,73.3,42.8,74.5,44.3,76.5 M84.7,21.6c-1.6,1.9-3.3,3.1-3.2,4.2
		c0.1,1.2,1.9,3,2.9,3c1.1,0,2.9-1.7,3.1-2.8C87.7,24.9,86.1,23.6,84.7,21.6"/>
	<path d="M4.3,131.5c9.5,5.5,18.8,11,28.1,16.4c14.7,8.5,29.5,16.8,44.1,25.4c5.3,3.1,10.3,3.2,15.5,0.1
		c22.1-12.7,44.2-25.4,66.2-38.1c2.1-1.2,4-2.8,6-4.3c2,10.8,0,15.3-9.2,20.6c-20.2,11.6-40.5,23-60.6,34.9c-7,4.1-13,4.3-20,0.1
		c-19.8-11.7-39.6-23.3-59.8-34.3C5.9,147.4,2.4,140.9,4.3,131.5z"/>
	<path class="st0" d="M104.8,41.8c-1.5-1.8-3.1-3-3.1-4.1c0-1.2,1.7-2.3,2.7-3.5c1.2,1.1,3,2,3.4,3.3
		C108,38.4,106.2,39.8,104.8,41.8z"/>
	<path class="st0" d="M105,57.6C105,57.6,105,57.6,105,57.6c-1,0-2,1.2-2.9,2.1c0,0,0,0,0,0l0,0c-0.1,0.1-0.3,0.2-0.4,0.4
		c0,0,0,0,0,0c0,0,0,0,0,0l0,0c0,0,0,0,0,0c0,0,0,0,0,0c0,0,0,0,0,0c0,0,0,0,0,0l0,0c1,1.2,1.9,3.1,3.1,3.5l0,0c0,0,0,0,0,0
		c0,0,0,0,0,0c0.1,0,0.1,0,0.2,0l0,0c0,0,0,0,0,0c0,0,0,0,0,0c0,0,0,0,0,0c0.1,0,0.2,0,0.3-0.1c0,0,0,0,0,0c0,0,0,0,0,0c0,0,0,0,0,0
		c0,0,0,0,0,0c0,0,0,0,0,0c0,0,0,0,0,0c0,0,0,0,0,0c0,0,0,0,0,0c0,0,0,0,0,0c0,0,0,0,0,0c0,0,0,0,0,0l0,0c0.9-0.4,2.1-1.6,3.6-2.6
		l0,0c0,0,0,0,0.1,0c0,0,0,0,0,0c0,0,0,0,0,0l0,0C107.2,59.3,106.1,57.6,105,57.6L105,57.6C105,57.6,105,57.6,105,57.6
		C105,57.6,105,57.6,105,57.6C105,57.6,105,57.6,105,57.6C105,57.6,105,57.6,105,57.6C105,57.6,105,57.6,105,57.6L105,57.6
		C105,57.6,105,57.6,105,57.6"/>
	<path class="st1" d="M104.9,63.6C104.9,63.6,104.9,63.6,104.9,63.6L104.9,63.6C104.9,63.6,104.9,63.6,104.9,63.6 M105,63.6
		C104.9,63.6,104.9,63.6,105,63.6C104.9,63.6,104.9,63.6,105,63.6 M104.6,63.6c0.1,0,0.1,0,0.2,0C104.8,63.6,104.7,63.6,104.6,63.6
		 M104.6,63.6C104.6,63.6,104.6,63.6,104.6,63.6C104.6,63.6,104.6,63.6,104.6,63.6 M105.3,63.5C105.3,63.5,105.3,63.5,105.3,63.5
		C105.3,63.5,105.3,63.5,105.3,63.5 M105.3,63.5C105.3,63.5,105.3,63.5,105.3,63.5C105.3,63.5,105.3,63.5,105.3,63.5 M105.3,63.5
		C105.3,63.5,105.3,63.5,105.3,63.5C105.3,63.5,105.3,63.5,105.3,63.5 M105.3,63.5C105.3,63.5,105.3,63.5,105.3,63.5
		C105.3,63.5,105.3,63.5,105.3,63.5 M105.3,63.5C105.3,63.5,105.3,63.5,105.3,63.5C105.3,63.5,105.3,63.5,105.3,63.5 M105.4,63.5
		C105.3,63.5,105.3,63.5,105.4,63.5C105.3,63.5,105.3,63.5,105.4,63.5 M108.9,60.9c-1.5,1-2.7,2.2-3.6,2.6
		C106.2,63.1,107.4,61.9,108.9,60.9 M109,60.8C109,60.8,108.9,60.8,109,60.8C108.9,60.8,109,60.8,109,60.8 M109,60.8
		C109,60.8,109,60.8,109,60.8C109,60.8,109,60.8,109,60.8 M101.5,60.1L101.5,60.1L101.5,60.1L101.5,60.1 M101.5,60.1
		C101.5,60.1,101.5,60.1,101.5,60.1C101.5,60.1,101.5,60.1,101.5,60.1 M101.5,60.1C101.5,60.1,101.5,60.1,101.5,60.1
		C101.5,60.1,101.5,60.1,101.5,60.1 M101.6,60C101.6,60,101.6,60,101.6,60C101.6,60,101.6,60,101.6,60 M102,59.7
		c-0.1,0.1-0.3,0.2-0.4,0.4C101.7,59.9,101.9,59.8,102,59.7 M102,59.6C102,59.6,102,59.7,102,59.6C102,59.7,102,59.6,102,59.6
		 M105,57.6L105,57.6c1.1,0,2.3,1.7,4,3.2l0,0C107.2,59.3,106.1,57.6,105,57.6L105,57.6 M105,57.6C105,57.6,105,57.6,105,57.6
		C105,57.6,105,57.6,105,57.6 M105,57.6C105,57.6,105,57.6,105,57.6C105,57.6,105,57.6,105,57.6 M105,57.6L105,57.6L105,57.6
		 M105,57.6C105,57.6,105,57.6,105,57.6C105,57.6,105,57.6,105,57.6L105,57.6"/>
	<path class="st0" d="M64.4,57.5L64.4,57.5c0,0-0.1,0-0.1,0l0,0c-1.2,0.2-2.1,1.9-3.2,3c1.2,1.1,2.3,2.8,3.6,3l0,0c0,0,0.1,0,0.1,0
		h0c0,0,0,0,0.1,0c0.3,0,0.7-0.3,1.2-0.8c0.7-0.6,1.5-1.6,2.4-2.4c0,0,0,0,0,0c0,0,0,0,0.1,0c0,0,0,0,0.1-0.1l0,0c0,0,0,0,0,0
		c0,0,0,0,0,0c0,0-0.1-0.1-0.1-0.1c0,0,0,0,0,0c-0.6-0.4-1.1-0.8-1.5-1.2C65.9,58.2,65.1,57.5,64.4,57.5
		C64.4,57.5,64.4,57.5,64.4,57.5"/>
	<path class="st1" d="M64.9,63.6C64.9,63.6,64.8,63.6,64.9,63.6L64.9,63.6C64.8,63.6,64.9,63.6,64.9,63.6 M64.7,63.6
		c0,0,0.1,0,0.1,0C64.8,63.6,64.8,63.6,64.7,63.6 M68.5,60.4c-0.9,0.9-1.7,1.8-2.4,2.4C66.8,62.2,67.6,61.2,68.5,60.4 M68.6,60.3
		C68.6,60.3,68.5,60.4,68.6,60.3C68.5,60.4,68.6,60.3,68.6,60.3 M68.6,60.3L68.6,60.3L68.6,60.3L68.6,60.3 M68.6,60.2
		C68.6,60.2,68.6,60.2,68.6,60.2C68.6,60.2,68.6,60.2,68.6,60.2 M68.4,60.1C68.5,60.1,68.5,60.1,68.4,60.1
		C68.5,60.1,68.5,60.1,68.4,60.1 M64.3,57.5L64.3,57.5c-1.2,0.2-2.1,1.9-3.2,3l0,0C62.1,59.5,63.1,57.7,64.3,57.5L64.3,57.5
		 M64.4,57.5c0.7,0,1.5,0.7,2.5,1.5C65.9,58.2,65.1,57.5,64.4,57.5 M64.4,57.5L64.4,57.5L64.4,57.5L64.4,57.5"/>
	<path class="st0" d="M88.8,141.1c-1.8,1.5-3.1,3.4-4,3.2c-1.3-0.3-2.4-2-3.6-3.1c1.1-1.1,2.1-2.8,3.3-2.9
		C85.6,138.2,86.9,139.8,88.8,141.1z"/>
	<path class="st0" d="M84.5,113.9c1.4,1.8,3.3,3.2,3.1,4.1c-0.3,1.3-2.1,2.3-3.2,3.4c-1-1.1-2.8-2.1-2.8-3.3
		C81.4,117,83.1,115.8,84.5,113.9z"/>
	<path class="st0" d="M84.9,92.3L84.9,92.3c0,0-0.1,0-0.1,0l0,0c-1.3,0.2-2.4,2-3.6,3.1c1.1,1,2.1,2.8,3.2,2.9l0,0c0,0,0.1,0,0.1,0
		h0c0,0,0,0,0,0c0.8,0,1.7-0.8,2.9-1.7c0.4-0.3,0.7-0.6,1.2-0.9c0,0,0,0,0,0c0,0,0.1-0.1,0.1-0.1c0,0,0.1-0.1,0.1-0.1l0,0
		c0,0,0,0,0,0l0,0c-0.9-0.7-1.6-1.5-2.2-2.1C86,92.7,85.4,92.3,84.9,92.3C84.9,92.3,84.9,92.3,84.9,92.3"/>
	<path class="st1" d="M84.6,98.3C84.6,98.3,84.6,98.3,84.6,98.3L84.6,98.3C84.6,98.3,84.6,98.3,84.6,98.3 M84.5,98.3
		c0,0,0.1,0,0.1,0C84.6,98.3,84.5,98.3,84.5,98.3 M88.6,95.7c-0.4,0.3-0.8,0.6-1.2,0.9C87.8,96.3,88.2,96,88.6,95.7 M88.8,95.6
		c0,0-0.1,0.1-0.1,0.1C88.7,95.6,88.7,95.6,88.8,95.6 M88.9,95.5L88.9,95.5L88.9,95.5 M84.8,92.3L84.8,92.3c-1.3,0.2-2.4,2-3.6,3.1
		l0,0C82.4,94.3,83.5,92.6,84.8,92.3L84.8,92.3 M84.9,92.3c0.5,0,1,0.4,1.7,1.1C86,92.7,85.4,92.3,84.9,92.3 M84.9,92.3L84.9,92.3
		L84.9,92.3L84.9,92.3"/>
	<path class="st0" d="M44.5,92.3L44.5,92.3c-0.1,0-0.1,0-0.2,0l0,0c-1.3,0.3-2.3,2.1-3.4,3.2c1.1,1,2.1,2.7,3.3,2.8c0,0,0,0,0,0
		c0,0,0,0,0.1,0h0c0,0,0,0,0,0c0.8,0,1.7-0.9,2.9-2c0,0,0,0,0,0c0,0,0,0,0,0c0,0,0,0,0,0c0,0,0,0,0,0c0.3-0.3,0.7-0.6,1.1-0.9
		c0,0,0,0,0,0c0,0,0,0,0,0l0,0l0,0c-0.1-0.1-0.1-0.1-0.2-0.2c0,0,0,0,0,0c-1.1-0.9-2.1-1.9-2.9-2.5C45.1,92.4,44.8,92.3,44.5,92.3
		C44.5,92.3,44.5,92.3,44.5,92.3"/>
	<path class="st1" d="M44.4,98.3C44.4,98.3,44.4,98.3,44.4,98.3L44.4,98.3C44.4,98.3,44.4,98.3,44.4,98.3 M44.3,98.3
		C44.3,98.3,44.3,98.3,44.3,98.3C44.3,98.3,44.3,98.3,44.3,98.3 M47.3,96.3C47.3,96.3,47.3,96.3,47.3,96.3
		C47.3,96.3,47.3,96.3,47.3,96.3 M47.3,96.3C47.3,96.3,47.3,96.3,47.3,96.3C47.3,96.3,47.3,96.3,47.3,96.3 M48.4,95.4
		c-0.4,0.3-0.8,0.6-1.1,0.9C47.7,96,48,95.7,48.4,95.4 M48.5,95.3C48.5,95.3,48.5,95.3,48.5,95.3C48.5,95.3,48.5,95.3,48.5,95.3
		 M48.3,95.2C48.3,95.2,48.3,95.2,48.3,95.2C48.3,95.2,48.3,95.2,48.3,95.2 M44.4,92.3L44.4,92.3c-1.3,0.3-2.3,2.1-3.4,3.2l0,0
		C42.1,94.4,43,92.6,44.4,92.3L44.4,92.3 M44.5,92.3c0.3,0,0.6,0.2,0.9,0.4C45.1,92.4,44.8,92.3,44.5,92.3 M44.5,92.3L44.5,92.3
		L44.5,92.3L44.5,92.3"/>
	<path class="st0" d="M68.7,37.7c-2,1.3-3.3,2.9-4.4,2.7c-1.2-0.2-2.1-1.9-3.2-3c1.2-1.1,2.3-2.8,3.6-3
		C65.6,34.3,66.9,36.1,68.7,37.7z"/>
	<path class="st0" d="M145.4,57.5C145.4,57.5,145.4,57.5,145.4,57.5C145.3,57.5,145.3,57.5,145.4,57.5c-0.1,0-0.1,0-0.2,0
		c-0.1,0-0.1,0-0.2,0c0,0,0,0,0,0c0,0,0,0,0,0c0,0,0,0,0,0c0,0,0,0-0.1,0l0,0c0,0,0,0,0,0c0,0,0,0,0,0c0,0,0,0,0,0c0,0,0,0,0,0
		c-1.1,0.3-2.6,1.5-2.8,2.4c0,0,0,0,0,0c0,0,0,0,0,0c0,0,0,0,0,0c0,0,0,0,0,0l0,0c0,0.1,0,0.1,0,0.2c0,1.1,1.4,3,2.4,3.3
		c0,0,0,0,0,0c0.1,0,0.2,0,0.3,0h0c0,0,0,0,0,0c0.4,0,1-0.3,1.6-0.6c0.7-0.4,1.6-1,2.6-1.6l0,0c0,0,0,0,0,0c0,0,0,0,0,0
		c0.1,0,0.1-0.1,0.2-0.1c0,0,0,0,0,0C147.5,59.4,146.6,57.6,145.4,57.5C145.4,57.5,145.4,57.5,145.4,57.5L145.4,57.5"/>
	<path class="st1" d="M144.9,63.5C144.9,63.5,144.9,63.5,144.9,63.5L144.9,63.5C144.9,63.5,144.9,63.5,144.9,63.5 M144.6,63.5
		c0.1,0,0.2,0,0.3,0C144.8,63.5,144.7,63.5,144.6,63.5 M149,61.3c-1,0.6-1.9,1.1-2.6,1.6C147.2,62.5,148,61.9,149,61.3 M149,61.3
		C149,61.3,149,61.3,149,61.3C149,61.3,149,61.3,149,61.3 M149.3,61.2c-0.1,0-0.1,0.1-0.2,0.1C149.1,61.3,149.2,61.2,149.3,61.2
		 M142.1,60.1L142.1,60.1c0,0.1,0,0.1,0,0.2C142.1,60.2,142.1,60.1,142.1,60.1L142.1,60.1 M142.1,60.1
		C142.1,60.1,142.1,60.1,142.1,60.1C142.1,60.1,142.1,60.1,142.1,60.1 M142.1,60C142.1,60,142.1,60,142.1,60
		C142.1,60,142.1,60,142.1,60 M144.9,57.6C144.9,57.6,144.9,57.6,144.9,57.6C144.9,57.6,144.9,57.6,144.9,57.6 M144.9,57.6
		C144.9,57.6,144.9,57.6,144.9,57.6C144.9,57.6,144.9,57.6,144.9,57.6 M144.9,57.6L144.9,57.6L144.9,57.6 M145,57.6
		C145,57.6,145,57.6,145,57.6C145,57.6,145,57.6,145,57.6 M145.1,57.6C145.1,57.6,145.1,57.6,145.1,57.6
		C145.1,57.6,145.1,57.6,145.1,57.6 M145.3,57.5C145.3,57.5,145.3,57.5,145.3,57.5C145.3,57.5,145.3,57.5,145.3,57.5 M145.4,57.5
		C145.4,57.5,145.4,57.5,145.4,57.5c1.2,0.1,2.2,1.9,3.9,3.7l0,0C147.5,59.4,146.6,57.6,145.4,57.5
		C145.4,57.5,145.4,57.5,145.4,57.5 M145.4,57.5C145.4,57.5,145.4,57.5,145.4,57.5C145.4,57.5,145.4,57.5,145.4,57.5L145.4,57.5"/>
	<path class="st0" d="M109.2,129.7c-2.1,1.5-3.3,3.1-4.4,3.1c-1.2-0.1-2.2-1.8-3.3-2.8c1-1.1,2-2.8,3.2-3
		C105.7,126.8,107.1,128.3,109.2,129.7z"/>
	<path class="st0" d="M68.7,129.6c-1.9,1.5-3.2,3.3-4.1,3.1c-1.3-0.3-2.4-2-3.5-3.1c1.1-1,2.1-2.7,3.3-2.8
		C65.5,126.7,66.7,128.2,68.7,129.6z"/>
	<path class="st0" d="M24.2,80.8L24.2,80.8C24.2,80.8,24.2,80.8,24.2,80.8L24.2,80.8c-1.2,0.1-3.1,1.8-3.1,2.8c0,0,0,0,0,0
		c0,1.1,1.7,2.9,2.8,3.1l0,0c0.1,0,0.1,0,0.2,0h0c0,0,0,0,0,0c0.6,0,1.4-0.6,2.3-1.3c0,0,0,0,0,0c0,0,0,0,0,0c0,0,0,0,0,0
		c0,0,0,0,0,0c0.5-0.4,1.1-0.9,1.8-1.4c0,0,0,0,0,0c0,0,0.1-0.1,0.1-0.1c0,0,0,0,0,0c0,0,0,0,0,0c0,0,0,0,0,0c0,0,0,0,0,0l0,0
		c0,0,0,0-0.1-0.1c0,0,0,0,0,0c0,0,0,0,0,0c0,0,0,0,0,0c0,0,0,0-0.1-0.1c0,0,0,0,0,0c0,0,0,0,0,0c0,0,0,0,0,0c0,0,0,0,0,0
		c-0.4-0.3-0.8-0.7-1.2-1C25.8,81.6,25,80.8,24.2,80.8C24.2,80.8,24.2,80.8,24.2,80.8"/>
	<path class="st1" d="M24.1,86.7C24.1,86.7,24.1,86.7,24.1,86.7L24.1,86.7C24.1,86.7,24.1,86.7,24.1,86.7 M23.9,86.7
		c0.1,0,0.1,0,0.2,0C24,86.7,24,86.7,23.9,86.7 M26.4,85.4C26.4,85.4,26.4,85.4,26.4,85.4C26.4,85.4,26.4,85.4,26.4,85.4 M26.4,85.4
		C26.4,85.4,26.4,85.4,26.4,85.4C26.4,85.4,26.4,85.4,26.4,85.4 M28.2,84c-0.7,0.5-1.3,1-1.8,1.4C26.9,85,27.5,84.5,28.2,84
		 M28.3,83.9c0,0-0.1,0.1-0.1,0.1C28.3,84,28.3,83.9,28.3,83.9 M28.4,83.9C28.3,83.9,28.3,83.9,28.4,83.9
		C28.3,83.9,28.3,83.9,28.4,83.9 M28.4,83.9C28.4,83.9,28.4,83.9,28.4,83.9C28.4,83.9,28.4,83.9,28.4,83.9 M28.3,83.8
		C28.3,83.8,28.4,83.9,28.3,83.8L28.3,83.8C28.4,83.9,28.3,83.8,28.3,83.8 M28.3,83.8C28.3,83.8,28.3,83.8,28.3,83.8
		C28.3,83.8,28.3,83.8,28.3,83.8 M28.2,83.7C28.2,83.7,28.2,83.8,28.2,83.7C28.2,83.8,28.2,83.7,28.2,83.7 M28.2,83.7
		C28.2,83.7,28.2,83.7,28.2,83.7C28.2,83.7,28.2,83.7,28.2,83.7 M28.1,83.7C28.1,83.7,28.1,83.7,28.1,83.7
		C28.1,83.7,28.1,83.7,28.1,83.7 M24.2,80.8L24.2,80.8c-1.1,0.1-3,1.8-3,2.8c0,0,0,0,0,0c0,0,0,0,0,0C21.2,82.6,23,80.9,24.2,80.8
		L24.2,80.8 M24.2,80.8c0.8,0,1.6,0.8,2.7,1.9C25.8,81.6,25,80.8,24.2,80.8 M24.2,80.8L24.2,80.8L24.2,80.8L24.2,80.8"/>
	<path class="st0" d="M64.2,80.8L64.2,80.8C64.2,80.8,64.2,80.8,64.2,80.8L64.2,80.8c-1.1,0.1-2.9,1.9-2.9,3.1c0,0,0,0,0,0
		c0,1.1,1.7,2.3,3.2,4.2c1.3-2,2.8-3.3,2.8-4.4c0-0.1,0-0.1,0-0.2c0,0,0,0,0,0c0,0,0,0,0,0c-0.2-0.9-1.5-2.3-2.5-2.7c0,0,0,0,0,0
		c0,0,0,0,0,0c0,0,0,0,0,0c0,0,0,0,0,0c0,0,0,0,0,0c0,0,0,0,0,0c-0.1,0-0.2-0.1-0.3-0.1C64.3,80.8,64.3,80.8,64.2,80.8
		C64.2,80.8,64.2,80.8,64.2,80.8"/>
	<path class="st1" d="M67.3,83.6C67.3,83.6,67.3,83.6,67.3,83.6c0,0.1,0,0.1,0,0.2C67.3,83.7,67.3,83.7,67.3,83.6
		C67.3,83.6,67.3,83.6,67.3,83.6 M64.8,80.9c1,0.4,2.3,1.7,2.5,2.7C67.1,82.6,65.8,81.3,64.8,80.9 M64.7,80.9
		C64.7,80.9,64.8,80.9,64.7,80.9C64.8,80.9,64.7,80.9,64.7,80.9 M64.7,80.9C64.7,80.9,64.7,80.9,64.7,80.9
		C64.7,80.9,64.7,80.9,64.7,80.9 M64.7,80.9C64.7,80.9,64.7,80.9,64.7,80.9C64.7,80.9,64.7,80.9,64.7,80.9 M64.2,80.8L64.2,80.8
		c-1.1,0.1-2.8,1.9-2.9,3.1c0,0,0,0,0,0c0,0,0,0,0,0C61.4,82.7,63.1,80.8,64.2,80.8L64.2,80.8 M64.2,80.8c0,0,0.1,0,0.1,0
		C64.3,80.8,64.3,80.8,64.2,80.8 M64.2,80.8L64.2,80.8L64.2,80.8L64.2,80.8"/>
	<path class="st0" d="M104.2,80.6c-0.9,1.1-2.6,2.3-2.6,3.4c0,0,0,0,0,0c0,1.1,1.7,2.2,3.2,4c1.2-1.8,2.8-3.2,2.8-4.1
		c0-0.1,0-0.1,0-0.2C107.3,82.4,105.5,81.6,104.2,80.6"/>
	<path class="st0" d="M145.1,80.7L145.1,80.7c0,0-0.1,0-0.1,0l0,0c-1.1,0.2-2.8,2-2.8,3c0,0,0,0,0,0c0,1.1,1.9,2.8,3,2.9l0,0
		c0,0,0.1,0,0.1,0h0c0,0,0,0,0,0c0.8,0,1.7-0.9,2.8-2c0,0,0,0,0.1-0.1c0,0,0,0,0,0c0.3-0.3,0.7-0.6,1.1-0.9c0,0,0,0,0,0c0,0,0,0,0,0
		c0,0,0.1-0.1,0.1-0.1c0,0,0,0,0.1,0l0,0l0,0c0,0,0,0,0,0c0,0,0,0,0,0c0,0,0,0,0,0c0,0,0,0,0,0c-0.6-0.4-1.1-0.9-1.6-1.3
		C146.6,81.4,145.8,80.7,145.1,80.7C145.1,80.7,145.1,80.7,145.1,80.7"/>
	<path class="st1" d="M145.2,86.7C145.2,86.7,145.2,86.7,145.2,86.7L145.2,86.7C145.2,86.7,145.2,86.7,145.2,86.7 M145.1,86.7
		C145.1,86.7,145.1,86.7,145.1,86.7C145.1,86.7,145.1,86.7,145.1,86.7 M148.1,84.6C148.1,84.7,148,84.7,148.1,84.6
		C148,84.7,148.1,84.7,148.1,84.6 M149.2,83.7c-0.4,0.3-0.7,0.6-1.1,0.9C148.4,84.3,148.8,84,149.2,83.7 M149.2,83.7
		C149.2,83.7,149.2,83.7,149.2,83.7C149.2,83.7,149.2,83.7,149.2,83.7 M149.4,83.6C149.3,83.6,149.3,83.6,149.4,83.6
		C149.3,83.6,149.3,83.6,149.4,83.6 M149.4,83.6L149.4,83.6L149.4,83.6L149.4,83.6 M149.3,83.5C149.3,83.5,149.3,83.5,149.3,83.5
		C149.3,83.5,149.3,83.5,149.3,83.5 M149.2,83.5C149.2,83.5,149.3,83.5,149.2,83.5C149.3,83.5,149.2,83.5,149.2,83.5 M144.9,80.7
		L144.9,80.7c-1.1,0.2-2.8,2-2.8,3C142.1,82.7,143.8,80.9,144.9,80.7L144.9,80.7 M145.1,80.7c0.7,0,1.5,0.7,2.5,1.5
		C146.6,81.4,145.8,80.7,145.1,80.7 M145.1,80.7L145.1,80.7L145.1,80.7L145.1,80.7"/>
	<path class="st0" d="M84.3,53.3c-1.4-2-3-3.4-2.8-4.4c0.2-1.1,2.1-2.8,3.2-2.7c1.1,0,2.8,1.9,2.9,3C87.6,50.2,85.8,51.4,84.3,53.3z
		"/>
	<path class="st0" d="M64.4,104L64.4,104c-0.1,0-0.1,0-0.2,0c0,0,0,0,0,0c-1.2,0.2-2.1,1.9-3.1,3c1.1,1,2.2,2.7,3.3,2.8l0,0
		c0,0,0.1,0,0.1,0h0c0,0,0,0,0,0c0.8,0,1.6-0.8,2.8-1.9c0.4-0.4,0.9-0.8,1.4-1.2c0,0,0,0,0,0c0,0,0,0,0,0c0,0,0,0,0,0l0,0
		c0,0,0,0,0,0c0,0,0,0,0,0c0,0,0,0,0,0c0,0-0.1,0-0.1-0.1c0,0,0,0,0,0c0,0,0,0,0,0c-0.7-0.4-1.2-0.9-1.8-1.2
		C65.9,104.6,65.1,104,64.4,104C64.4,104,64.4,104,64.4,104"/>
	<path class="st1" d="M64.5,109.8C64.5,109.8,64.5,109.8,64.5,109.8L64.5,109.8C64.5,109.8,64.5,109.8,64.5,109.8 M64.5,109.8
		C64.5,109.8,64.5,109.8,64.5,109.8C64.5,109.8,64.5,109.8,64.5,109.8 M68.8,106.8c-0.5,0.4-1,0.8-1.4,1.2
		C67.8,107.6,68.2,107.2,68.8,106.8 M68.8,106.7C68.8,106.7,68.8,106.7,68.8,106.7C68.8,106.7,68.8,106.7,68.8,106.7 M68.8,106.7
		L68.8,106.7L68.8,106.7L68.8,106.7 M68.8,106.6C68.8,106.7,68.8,106.7,68.8,106.6C68.8,106.7,68.8,106.7,68.8,106.6 M68.6,106.6
		C68.7,106.6,68.7,106.6,68.6,106.6C68.7,106.6,68.7,106.6,68.6,106.6 M68.6,106.6C68.6,106.6,68.6,106.6,68.6,106.6
		C68.6,106.6,68.6,106.6,68.6,106.6 M64.2,104C64.2,104,64.2,104,64.2,104c-1.2,0.2-2.1,1.9-3.1,3l0,0
		C62.1,105.9,63.1,104.2,64.2,104C64.2,104,64.2,104,64.2,104 M64.4,104c0.7,0,1.5,0.6,2.5,1.3C65.9,104.6,65.1,104,64.4,104
		 M64.4,104L64.4,104L64.4,104L64.4,104"/>
	<path class="st0" d="M104.7,102.4c-1.4,1.8-3.1,3.1-3.1,4c0,0.1,0,0.1,0,0.1c0.3,1.3,2.1,2.3,3.2,3.4c1-1.1,2.7-2.1,2.8-3.3
		c0,0,0-0.1,0-0.1C107.7,105.5,106.1,104.3,104.7,102.4"/>
	<path class="st0" d="M124.7,122.8c-1.4-2.1-3-3.4-2.8-4.5c0.1-1.2,1.9-2.1,3-3.2c1,1.1,2.8,2.1,2.9,3.3
		C127.9,119.6,126.2,120.8,124.7,122.8z"/>
	<path class="st0" d="M124.9,92.2L124.9,92.2c0,0-0.1,0-0.1,0l0,0c-1.1,0.1-2.1,1.9-3.1,3c1.1,1,2,2.7,3.2,2.8l0,0c0,0,0.1,0,0.1,0
		h0c0,0,0,0,0,0c0.8,0,1.6-0.8,2.7-1.7c0.4-0.4,0.9-0.7,1.4-1.1l0,0c0,0,0,0,0.1,0c0,0,0,0,0,0c0,0,0,0,0,0c0,0,0,0,0,0c0,0,0,0,0,0
		c0,0,0,0,0,0c0,0,0,0,0,0c0,0,0,0,0,0c0,0-0.1,0-0.1-0.1c0,0,0,0,0,0c0,0,0,0,0,0c0,0,0,0,0,0c0,0,0,0,0,0c0,0,0,0,0,0
		c0,0,0,0-0.1,0c0,0,0,0,0,0c0,0,0,0,0,0c-0.5-0.3-0.9-0.7-1.3-1c0,0,0,0,0,0c0,0,0,0,0,0C126.5,93,125.7,92.2,124.9,92.2
		C124.9,92.2,124.9,92.2,124.9,92.2"/>
	<path class="st1" d="M125,98.1C125,98.1,125,98.1,125,98.1L125,98.1C125,98.1,125,98.1,125,98.1 M124.9,98.1c0,0,0.1,0,0.1,0
		C125,98.1,124.9,98.1,124.9,98.1 M129.2,95.3c-0.5,0.4-1,0.8-1.4,1.1C128.2,96,128.6,95.6,129.2,95.3 M129.2,95.2
		C129.2,95.2,129.2,95.2,129.2,95.2C129.2,95.2,129.2,95.2,129.2,95.2 M129.3,95.2C129.3,95.2,129.3,95.2,129.3,95.2
		C129.3,95.2,129.3,95.2,129.3,95.2 M129.3,95.2C129.3,95.2,129.3,95.2,129.3,95.2C129.3,95.2,129.3,95.2,129.3,95.2 M129.3,95.1
		C129.3,95.1,129.3,95.2,129.3,95.1L129.3,95.1C129.3,95.2,129.3,95.1,129.3,95.1 M129.2,95.1C129.2,95.1,129.2,95.1,129.2,95.1
		C129.2,95.1,129.2,95.1,129.2,95.1 M129.1,95C129.1,95,129.1,95,129.1,95C129.1,95,129.1,95,129.1,95 M129.1,95
		C129.1,95,129.1,95,129.1,95C129.1,95,129.1,95,129.1,95 M129,94.9C129,95,129,95,129,94.9C129,95,129,95,129,94.9 M129,94.9
		C129,94.9,129,94.9,129,94.9C129,94.9,129,94.9,129,94.9 M127.7,93.9C127.7,93.9,127.7,93.9,127.7,93.9
		C127.7,93.9,127.7,93.9,127.7,93.9 M124.8,92.2L124.8,92.2c-1.1,0.1-2.1,1.9-3.1,3l0,0C122.7,94.2,123.7,92.4,124.8,92.2
		L124.8,92.2 M124.9,92.2c0.8,0,1.6,0.7,2.7,1.7C126.5,93,125.7,92.2,124.9,92.2 M124.9,92.2L124.9,92.2L124.9,92.2L124.9,92.2"/>
	<path class="st0" d="M84.4,69.2C84.4,69.2,84.4,69.2,84.4,69.2c-0.8,0-1.6,0.8-2.8,1.8c-0.4,0.3-0.8,0.7-1.3,1c0,0,0,0,0,0
		c0,0-0.1,0.1-0.1,0.1l0,0c0,0-0.1,0-0.1,0.1c0,0,0,0,0,0c0,0,0,0,0,0c0,0,0,0,0,0c0,0,0,0,0,0c0,0,0,0,0,0l0,0l0,0c0,0,0,0,0,0
		c0,0,0,0,0,0c0,0,0,0,0,0c0,0,0,0,0.1,0c0,0,0,0,0,0c0,0,0,0,0,0c0,0,0,0,0,0c0.5,0.4,1,0.7,1.4,1.1c1.1,0.9,2,1.7,2.8,1.7
		c0,0,0,0,0,0c0,0,0,0,0,0c0,0,0.1,0,0.1,0c0,0,0,0,0,0l0,0c0,0,0,0,0,0l0,0c1.2-0.1,2.2-1.9,3.2-2.9c-1.1-1.1-2.1-2.8-3.3-2.9
		C84.4,69.2,84.4,69.2,84.4,69.2L84.4,69.2"/>
	<path class="st1" d="M84.4,75C84.4,75,84.4,75,84.4,75L84.4,75C84.4,75,84.4,75,84.4,75 M84.5,75C84.5,75,84.5,75,84.5,75
		C84.5,75,84.5,75,84.5,75 M84.5,75C84.5,75,84.5,75,84.5,75C84.5,75,84.5,75,84.5,75 M81.6,73.4c1.1,0.9,2,1.7,2.8,1.7
		C83.6,75,82.7,74.3,81.6,73.4 M80.2,72.3C80.2,72.3,80.2,72.3,80.2,72.3C80.2,72.3,80.2,72.3,80.2,72.3 M80.1,72.3
		C80.1,72.3,80.1,72.3,80.1,72.3C80.1,72.3,80.1,72.3,80.1,72.3 M80.1,72.2C80.1,72.2,80.1,72.2,80.1,72.2
		C80.1,72.2,80.1,72.2,80.1,72.2 M80,72.2C80,72.2,80,72.2,80,72.2C80,72.2,80,72.2,80,72.2 M80.1,72.1C80.1,72.1,80,72.1,80.1,72.1
		C80,72.1,80.1,72.1,80.1,72.1 M80.1,72.1C80.1,72.1,80.1,72.1,80.1,72.1C80.1,72.1,80.1,72.1,80.1,72.1 M80.2,72
		C80.1,72.1,80.1,72.1,80.2,72C80.1,72.1,80.1,72.1,80.2,72 M80.3,71.9c0,0-0.1,0.1-0.1,0.1C80.2,72,80.3,72,80.3,71.9 M81.6,70.9
		c-0.4,0.3-0.8,0.7-1.3,1C80.8,71.6,81.2,71.2,81.6,70.9 M84.4,69.2c0,0,0.1,0,0.1,0c1.2,0.1,2.2,1.9,3.3,2.9l0,0
		c-1.1-1.1-2.1-2.8-3.3-2.9C84.4,69.2,84.4,69.2,84.4,69.2 M84.4,69.2C84.4,69.2,84.4,69.2,84.4,69.2C84.4,69.2,84.4,69.2,84.4,69.2
		L84.4,69.2"/>
	<path class="st0" d="M24.3,102.5c-1.6,2-3.2,3.1-3.2,4.1c0,0,0,0,0,0c0,1.1,1.6,3,2.6,3.1l0,0c0,0,0,0,0.1,0h0c0,0,0,0,0,0
		c0,0,0,0,0.1,0c0,0,0.1,0,0.1,0c0,0,0,0,0,0c0,0,0.1,0,0.1,0c0,0,0,0,0,0h0c1.1-0.2,2.5-1.6,2.8-2.6c0,0,0,0,0,0c0,0,0,0,0,0
		c0-0.1,0-0.1,0-0.2C26.9,105.9,25.6,104.5,24.3,102.5"/>
	<path class="st1" d="M23.9,109.7C23.9,109.7,23.9,109.7,23.9,109.7L23.9,109.7C23.9,109.7,23.9,109.7,23.9,109.7 M23.8,109.7
		C23.8,109.7,23.8,109.7,23.8,109.7C23.8,109.7,23.8,109.7,23.8,109.7 M24,109.7C24,109.7,24,109.7,24,109.7
		C24,109.7,24,109.7,24,109.7 M24.1,109.7c0,0-0.1,0-0.1,0C24.1,109.7,24.1,109.7,24.1,109.7 M24.1,109.7L24.1,109.7L24.1,109.7
		 M26.9,107.1C26.9,107.1,26.9,107.1,26.9,107.1C26.9,107.1,26.9,107.1,26.9,107.1 M24.3,102.5c-1.6,2-3.2,3.1-3.2,4.1
		C21.1,105.5,22.8,104.4,24.3,102.5c1.2,2.1,2.6,3.4,2.6,4.4C26.9,105.9,25.6,104.5,24.3,102.5"/>
	<path class="st0" d="M145.3,102.5c-1.6,2-3.2,3.1-3.2,4.2c0,0,0,0,0,0c0,1.1,1.6,3,2.7,3.1l0,0c0,0,0.1,0,0.1,0h0c0,0,0,0,0,0
		c0,0,0,0,0,0c0.1,0,0.2,0,0.2,0c0,0,0,0,0,0l0,0c0,0,0,0,0,0c0,0,0,0,0,0c0,0,0,0,0,0c0,0,0,0,0,0l0,0c0,0,0,0,0,0
		c1-0.3,2.4-1.6,2.6-2.6c0,0,0,0,0,0l0,0c0-0.1,0-0.1,0-0.2C147.9,105.9,146.5,104.5,145.3,102.5"/>
	<path class="st1" d="M144.9,109.8C144.9,109.8,144.9,109.8,144.9,109.8L144.9,109.8C144.9,109.8,144.9,109.8,144.9,109.8
		 M144.8,109.8C144.8,109.8,144.8,109.8,144.8,109.8C144.8,109.8,144.8,109.8,144.8,109.8 M145.2,109.7c-0.1,0-0.2,0-0.2,0
		C145,109.8,145.1,109.8,145.2,109.7 M145.2,109.7L145.2,109.7L145.2,109.7 M145.2,109.7C145.2,109.7,145.2,109.7,145.2,109.7
		C145.2,109.7,145.2,109.7,145.2,109.7 M145.3,109.7C145.2,109.7,145.2,109.7,145.3,109.7C145.2,109.7,145.2,109.7,145.3,109.7
		 M145.3,109.7C145.3,109.7,145.3,109.7,145.3,109.7C145.3,109.7,145.3,109.7,145.3,109.7 M147.9,107.1
		C147.9,107.1,147.9,107.1,147.9,107.1C147.9,107.1,147.9,107.1,147.9,107.1 M145.3,102.5c-1.6,2-3.2,3.1-3.2,4.2
		C142.1,105.6,143.7,104.4,145.3,102.5c1.2,2.1,2.6,3.4,2.6,4.4C147.9,105.9,146.5,104.5,145.3,102.5"/>
	<path class="st0" d="M48.5,118.6c-2,1.4-3.4,3-4.5,2.9c-1.2-0.2-2.9-2-2.9-3.1c0.1-1.1,1.9-2.8,3.1-2.9
		C45.4,115.4,46.6,117.1,48.5,118.6z"/>
	<path class="st0" d="M43.8,44.6c1.6,1.9,3.3,3.1,3.2,4.2c0,1.1-1.7,3-2.7,3.1c-1,0.1-2.9-1.6-3.1-2.7C41,48.1,42.5,46.7,43.8,44.6z
		"/>
	<path class="st0" d="M129.3,48.9c-2.1,1.5-3.3,3-4.4,2.9c-1.1-0.1-2.1-1.8-3.2-2.8c1-1,2-2.8,3.1-2.9
		C125.9,45.9,127.2,47.5,129.3,48.9z"/>
	<path class="st0" d="M125,69.2L125,69.2C125,69.2,125,69.2,125,69.2C124.9,69.2,124.9,69.2,125,69.2c-1.2,0.1-2.3,1.8-3.3,2.8
		c1,1.1,2,2.8,3.1,3l0,0c0,0,0.1,0,0.1,0l0,0c0,0,0,0,0,0c0.7,0,1.5-0.6,2.5-1.4c0.5-0.4,1.1-0.9,1.8-1.3c0,0,0,0,0,0c0,0,0,0,0,0
		c0,0,0,0,0,0c0,0,0,0,0,0c0,0,0,0,0,0c0,0,0,0,0,0c0,0,0,0,0,0c0,0-0.1,0-0.1-0.1c0,0,0,0,0,0c0,0,0,0,0,0c0,0,0,0,0,0c0,0,0,0,0,0
		c0,0,0,0,0,0c0,0,0,0,0,0c0,0-0.1,0-0.1-0.1c0,0,0,0,0,0c-0.4-0.3-0.8-0.6-1.2-0.9C126.7,70,125.8,69.2,125,69.2
		C125,69.2,125,69.2,125,69.2"/>
	<path class="st1" d="M125,75C125,75,125,75,125,75L125,75C125,75,125,75,125,75 M124.8,75c0,0,0.1,0,0.1,0
		C124.9,75,124.9,75,124.8,75 M129.2,72.3c-0.7,0.4-1.3,0.9-1.8,1.3C127.9,73.2,128.5,72.7,129.2,72.3 M129.2,72.3
		C129.2,72.3,129.2,72.3,129.2,72.3C129.2,72.3,129.2,72.3,129.2,72.3 M129.3,72.2C129.3,72.2,129.3,72.2,129.3,72.2
		C129.3,72.2,129.3,72.2,129.3,72.2 M129.3,72.2C129.3,72.2,129.3,72.2,129.3,72.2L129.3,72.2C129.3,72.2,129.3,72.2,129.3,72.2
		 M129.2,72.1C129.2,72.1,129.3,72.1,129.2,72.1C129.3,72.1,129.2,72.1,129.2,72.1 M129.2,72.1C129.2,72.1,129.2,72.1,129.2,72.1
		C129.2,72.1,129.2,72.1,129.2,72.1 M129.1,72C129.1,72,129.1,72,129.1,72C129.1,72,129.1,72,129.1,72 M129.1,72
		C129.1,72,129.1,72,129.1,72C129.1,72,129.1,72,129.1,72 M129,71.9C129,71.9,129,71.9,129,71.9C129,71.9,129,71.9,129,71.9
		 M124.9,69.2C124.9,69.2,124.9,69.2,124.9,69.2c-1.2,0.1-2.2,1.8-3.2,2.8l0,0C122.8,71,123.8,69.3,124.9,69.2
		C124.9,69.2,124.9,69.2,124.9,69.2 M125,69.2c0.8,0,1.6,0.8,2.8,1.8C126.7,70,125.8,69.2,125,69.2 M125,69.2L125,69.2L125,69.2
		L125,69.2"/>
	<path class="st0" d="M44.1,69.2L44.1,69.2C44.1,69.2,44.1,69.2,44.1,69.2L44.1,69.2c-1.1,0.1-2.8,1.9-2.9,3c0,0,0,0,0,0.1
		c0,1.1,1.6,2.3,3.1,4.2c1.3-2,2.7-3.3,2.7-4.3c0-0.1,0-0.1,0-0.2c0,0,0,0,0,0c0,0,0,0,0,0c-0.2-0.9-1.5-2.3-2.5-2.7c0,0,0,0,0,0
		c0,0,0,0,0,0c0,0,0,0,0,0c0,0,0,0,0,0C44.4,69.2,44.3,69.2,44.1,69.2C44.2,69.2,44.2,69.2,44.1,69.2C44.1,69.2,44.1,69.2,44.1,69.2
		"/>
	<path class="st1" d="M47,72C47,72,47,72,47,72c0,0.1,0,0.1,0,0.2C47.1,72.1,47.1,72,47,72C47,72,47,72,47,72 M44.6,69.3
		c1,0.4,2.3,1.7,2.5,2.7C46.9,71,45.6,69.7,44.6,69.3 M44.5,69.3C44.5,69.3,44.5,69.3,44.5,69.3C44.5,69.3,44.5,69.3,44.5,69.3
		 M44.5,69.3C44.5,69.3,44.5,69.3,44.5,69.3C44.5,69.3,44.5,69.3,44.5,69.3 M44.2,69.2C44.2,69.2,44.2,69.2,44.2,69.2
		C44.2,69.2,44.2,69.2,44.2,69.2 M44,69.2L44,69.2c-1.1,0.1-2.8,1.9-2.8,3c0,0,0,0,0,0.1c0,0,0,0,0-0.1C41.3,71.1,43,69.3,44,69.2
		L44,69.2 M44.1,69.2L44.1,69.2L44.1,69.2L44.1,69.2"/>
	<path class="st0" d="M84.7,21.6c1.4,2,3,3.3,2.9,4.3c-0.2,1.2-2,2.8-3.1,2.8c-1.1,0-2.8-1.8-2.9-3C81.4,24.7,83.1,23.5,84.7,21.6z"
		/>
	<rect x="9.5" y="57.2" width="149.5" height="56.7"/>
	<polygon class="st0" points="50.2,66.3 36.5,66.3 36.5,62.6 68.1,62.6 68.1,66.3 54.5,66.3 54.5,106.7 50.2,106.7 	"/>
	<path class="st0" d="M71.3,98.6l3.5-1.9c2.2,3.9,5.9,6.7,11.9,6.7c7.4,0,11.7-4.7,11.7-11.2c0-6.6-4.5-11-12.1-11
		c-2.5,0-4.3,0.5-5.5,0.8l-0.2-0.4l13-15.3H74.9v-3.8h26.4v0.3l-12.9,15c8.5,0.3,14.3,6.2,14.3,14.4c0,8.9-6.5,14.9-15.8,14.9
		C79.4,107.2,74,103.6,71.3,98.6z"/>
	<polygon class="st0" points="110.6,62.6 114.8,62.6 114.8,102.9 135.3,102.9 135.3,106.7 110.6,106.7 	"/>
</g>
</svg>
